<svg  viewBox="0 0 17 16" fill="none" xmlns="http://www.w3.org/2000/svg">
<g clip-path="url(#clip0_508_2410)">
<path d="M15.2539 5.63671C15.8073 7.24166 15.7799 8.98991 15.1765 10.5767C14.5732 12.1636 13.4321 13.4883 11.9521 14.3201C10.4722 15.1519 8.74728 15.438 7.07806 15.1285C5.40884 14.819 3.90118 13.9335 2.81786 12.6264C1.73454 11.3193 1.14427 9.67344 1.14994 7.97578C1.15562 6.27811 1.75687 4.63627 2.8489 3.33644C3.94093 2.0366 5.45447 1.16121 7.12572 0.862845C8.79698 0.564481 10.5199 0.862068 11.9943 1.70373" stroke="currentColor" stroke-width="1.5"/>
<path d="M8.3999 3.5V9" stroke="currentColor" stroke-width="1.5"/>
<path d="M8.8999 11.5C8.8999 11.7762 8.67604 12 8.3999 12C8.12376 12 7.8999 11.7762 7.8999 11.5C7.8999 11.2239 8.12376 11 8.3999 11C8.67604 11 8.8999 11.2239 8.8999 11.5Z" fill="#646478" stroke="currentColor"/>
</g>
<defs>
<clipPath id="clip0_508_2410">
<rect width="17" height="17" fill="white" transform="translate(0.399902)"/>
</clipPath>
</defs>
</svg>
