<svg width="48" height="48" viewBox="0 0 48 48" fill="none" xmlns="http://www.w3.org/2000/svg">
<circle cx="24" cy="24" r="22.5" fill="white"/>
<path d="M33.9869 19.8813C33.9747 19.0375 33.8183 18.2004 33.5191 17.4112C32.9955 16.0635 31.9292 14.9979 30.5793 14.4762C29.7989 14.1831 28.9737 14.0259 28.1386 14.0081C27.0645 13.9602 26.7239 13.9468 23.9974 13.9468C21.2708 13.9468 20.9214 13.9468 19.8551 14.0081C19.021 14.0259 18.1959 14.1831 17.4155 14.4762C16.0656 14.9979 14.9982 16.0635 14.4757 17.4112C14.182 18.1903 14.0235 19.0141 14.0078 19.8467C13.9598 20.9201 13.9453 21.2601 13.9453 23.9821C13.9453 26.7042 13.9453 27.0519 14.0078 28.1176C14.0246 28.9513 14.182 29.774 14.4757 30.5553C14.9993 31.9019 16.0656 32.9675 17.4166 33.4891C18.1937 33.7923 19.0188 33.964 19.8562 33.9907C20.9314 34.0387 21.272 34.0532 23.9985 34.0532C26.7251 34.0532 27.0745 34.0532 28.1408 33.9907C28.9749 33.974 29.8 33.8169 30.5815 33.5237C31.9314 33.0009 32.9977 31.9353 33.5213 30.5888C33.815 29.8085 33.9724 28.9859 33.9892 28.151C34.0372 27.0787 34.0517 26.7387 34.0517 24.0156C34.0495 21.2936 34.0495 20.948 33.9869 19.8813ZM23.9907 29.1297C21.1391 29.1297 18.829 26.8234 18.829 23.9766C18.829 21.1297 21.1391 18.8235 23.9907 18.8235C26.8401 18.8235 29.1524 21.1297 29.1524 23.9766C29.1524 26.8234 26.8401 29.1297 23.9907 29.1297ZM29.3578 19.8345C28.6913 19.8345 28.1542 19.2972 28.1542 18.6328C28.1542 17.9685 28.6913 17.4312 29.3578 17.4312C30.0222 17.4312 30.5603 17.9685 30.5603 18.6328C30.5603 19.2972 30.0222 19.8345 29.3578 19.8345Z" fill="#4392D5"/>
<path d="M23.9907 27.3239C25.8425 27.3239 27.3436 25.8253 27.3436 23.9766C27.3436 22.1279 25.8425 20.6292 23.9907 20.6292C22.1389 20.6292 20.6378 22.1279 20.6378 23.9766C20.6378 25.8253 22.1389 27.3239 23.9907 27.3239Z" fill="#4392D5"/>
</svg>
