<svg width="48" height="48" viewBox="0 0 48 48" fill="none" xmlns="http://www.w3.org/2000/svg">
<circle cx="24" cy="24" r="22.5" fill="white"/>
<path d="M34.4642 18.8583C34.2134 17.9398 33.4776 17.2151 32.5434 16.9678C30.8362 16.5075 24.0065 16.5 24.0065 16.5C24.0065 16.5 17.1779 16.4925 15.4696 16.9325C14.5539 17.1776 13.7973 17.9184 13.5444 18.8359C13.0942 20.5123 13.0898 23.9893 13.0898 23.9893C13.0898 23.9893 13.0855 27.4834 13.5324 29.1427C13.7832 30.0602 14.519 30.7849 15.4544 31.0322C17.179 31.4925 23.9901 31.5 23.9901 31.5C23.9901 31.5 30.8198 31.5075 32.527 31.0686C33.4602 30.8224 34.1993 30.0987 34.4533 29.1813C34.9046 27.5059 34.9079 24.03 34.9079 24.03C34.9079 24.03 34.9297 20.5348 34.4642 18.8583ZM21.8218 27.2105L21.8273 20.7874L27.5036 24.0043L21.8218 27.2105Z" fill="#4392D5"/>
</svg>
