<svg width="32" height="24" viewBox="0 0 32 24" fill="none" xmlns="http://www.w3.org/2000/svg">
<rect width="32" height="24" fill="white"/>
<mask id="mask0_582_4507" style="mask-type:alpha" maskUnits="userSpaceOnUse" x="0" y="0" width="32" height="24">
<rect width="32" height="24" fill="white"/>
</mask>
<g mask="url(#mask0_582_4507)">
<rect width="32" height="24" fill="#043CAE"/>
<path fill-rule="evenodd" clip-rule="evenodd" d="M14.9224 5.13127L15.9999 4.7999L17.0774 5.13127L16.7618 3.9999L17.0774 2.86853L15.9999 3.1999L14.9224 2.86853L15.238 3.9999L14.9224 5.13127ZM14.9224 21.1313L15.9999 20.7999L17.0774 21.1313L16.7618 19.9999L17.0774 18.8685L15.9999 19.1999L14.9224 18.8685L15.238 19.9999L14.9224 21.1313ZM23.619 12.7999L22.5415 13.1313L22.8571 11.9999L22.5415 10.8685L23.619 11.1999L24.6965 10.8685L24.3809 11.9999L24.6965 13.1313L23.619 12.7999ZM7.30322 13.1313L8.38072 12.7999L9.45821 13.1313L9.14262 11.9999L9.45821 10.8685L8.38072 11.1999L7.30322 10.8685L7.61881 11.9999L7.30322 13.1313ZM22.5985 8.7999L21.521 9.13127L21.8366 7.9999L21.521 6.86853L22.5985 7.1999L23.676 6.86853L23.3604 7.9999L23.676 9.13127L22.5985 8.7999ZM8.32422 17.1318L9.40171 16.8004L10.4792 17.1318L10.1636 16.0004L10.4792 14.869L9.40171 15.2004L8.32422 14.869L8.63981 16.0004L8.32422 17.1318ZM19.8094 5.87217L18.7319 6.20354L19.0475 5.07217L18.7319 3.9408L19.8094 4.27217L20.8869 3.9408L20.5713 5.07217L20.8869 6.20354L19.8094 5.87217ZM11.1128 20.0595L12.1903 19.7281L13.2678 20.0595L12.9522 18.9281L13.2678 17.7968L12.1903 18.1281L11.1128 17.7968L11.4284 18.9281L11.1128 20.0595ZM22.5985 16.8004L21.521 17.1318L21.8366 16.0004L21.521 14.869L22.5985 15.2004L23.676 14.869L23.3604 16.0004L23.676 17.1318L22.5985 16.8004ZM8.32422 9.13127L9.40171 8.7999L10.4792 9.13127L10.1636 7.9999L10.4792 6.86853L9.40171 7.1999L8.32422 6.86853L8.63981 7.9999L8.32422 9.13127ZM19.8094 19.7281L18.7319 20.0595L19.0475 18.9281L18.7319 17.7968L19.8094 18.1281L20.8869 17.7968L20.5713 18.9281L20.8869 20.0595L19.8094 19.7281ZM11.1128 6.20354L12.1903 5.87217L13.2678 6.20354L12.9522 5.07217L13.2678 3.9408L12.1903 4.27217L11.1128 3.9408L11.4284 5.07217L11.1128 6.20354Z" fill="#FFD429"/>
</g>
</svg>
