<svg  viewBox="0 0 17 16" fill="none" xmlns="http://www.w3.org/2000/svg">
<g clip-path="url(#clip0_260_1018)">
<path fill-rule="evenodd" clip-rule="evenodd" d="M0.600098 8C0.600098 8 3.6001 13.5 8.6001 13.5C13.6001 13.5 16.6001 8 16.6001 8C16.6001 8 15.0106 5.08585 12.2172 3.5C11.6648 3.1864 11.0653 2.92475 10.4218 2.74784C9.8488 2.59033 9.24088 2.5 8.6001 2.5C3.6001 2.5 0.600098 8 0.600098 8ZM1.91648 8.71912L1.91551 8.7209L1.91609 8.71983L1.91648 8.71912ZM2.3764 8C2.37679 7.99944 2.37718 7.99888 2.37757 7.99831C2.70021 7.5354 3.17581 6.92061 3.78576 6.31066C5.03165 5.06477 6.67102 4 8.6001 4C9.09826 4 9.57251 4.07002 10.0242 4.19419C10.5327 4.33396 11.0175 4.54379 11.4766 4.80445C12.6501 5.47066 13.6081 6.44162 14.288 7.28568C14.4985 7.54694 14.6776 7.79021 14.8238 8C14.8234 8.00056 14.823 8.00112 14.8226 8.00169C14.5 8.4646 14.0244 9.07939 13.4144 9.68934C12.1686 10.9352 10.5292 12 8.6001 12C6.67102 12 5.03165 10.9352 3.78576 9.68934C3.17581 9.07939 2.70021 8.4646 2.37757 8.00169C2.37718 8.00112 2.37679 8.00056 2.3764 8Z" fill="currentColor"/>
<path d="M10.8501 8C10.8501 8.44501 10.7181 8.88002 10.4709 9.25003C10.2237 9.62004 9.87227 9.90843 9.46114 10.0787C9.05 10.249 8.5976 10.2936 8.16114 10.2068C7.72469 10.12 7.32378 9.90566 7.00911 9.59099C6.69444 9.27632 6.48015 8.87541 6.39333 8.43895C6.30651 8.0025 6.35107 7.5501 6.52137 7.13896C6.69167 6.72783 6.98005 6.37643 7.35006 6.12919C7.72008 5.88196 8.15509 5.75 8.6001 5.75" stroke="currentColor" stroke-width="1.5"/>
</g>
<defs>
<clipPath id="clip0_260_1018">
<rect width="17" height="17" fill="white" transform="translate(0.600098)"/>
</clipPath>
</defs>
</svg>
