<svg  viewBox="0 0 17 16" fill="none" xmlns="http://www.w3.org/2000/svg">
<g clip-path="url(#clip0_194_577)">
<path d="M3.69995 2L14.7 13" stroke="currentColor" stroke-width="1.5"/>
<path fill-rule="evenodd" clip-rule="evenodd" d="M14.7653 10.0047C15.699 8.91844 16.2 8 16.2 8C16.2 8 13.2 2.5 8.19995 2.5C7.89867 2.5 7.60465 2.51997 7.31811 2.5575L8.79441 4.03379C10.467 4.22424 11.8984 5.19481 13.0143 6.31066C13.6242 6.92061 14.0998 7.5354 14.4225 7.99831L14.4237 8L14.4225 8.00169C14.2334 8.27302 13.9917 8.59652 13.7013 8.94064L14.7653 10.0047ZM13.7255 11.0862L12.664 10.0247C11.4673 11.1204 9.95326 12 8.19995 12C6.27088 12 4.6315 10.9352 3.38561 9.68934C2.77567 9.07939 2.30006 8.4646 1.97742 8.00169L1.97625 8L1.97742 7.99831C2.30006 7.5354 2.77567 6.92061 3.38561 6.31066C4.32298 5.37329 5.4831 4.53844 6.82175 4.18246L5.635 2.99571C2.192 4.34792 0.199951 8 0.199951 8C0.199951 8 3.19995 13.5 8.19995 13.5C10.4957 13.5 12.3698 12.3405 13.7255 11.0862Z" fill="currentColor"/>
<path d="M10.2389 8.95149C10.0824 9.28679 9.84564 9.57833 9.54958 9.80028C9.25352 10.0222 8.9073 10.1677 8.54157 10.2239C8.17585 10.2801 7.80191 10.2452 7.45289 10.1224C7.10387 9.9995 6.79053 9.79247 6.54063 9.51959C6.29073 9.24671 6.11199 8.91642 6.02023 8.55796C5.92847 8.1995 5.92654 7.82395 6.01459 7.46456C6.10264 7.10518 6.27797 6.77306 6.52504 6.49761C6.77211 6.22217 7.08329 6.01191 7.43103 5.88546" stroke="currentColor" stroke-width="1.5"/>
</g>
<defs>
<clipPath id="clip0_194_577">
<rect width="17" height="17" fill="white" transform="translate(0.199951)"/>
</clipPath>
</defs>
</svg>
