<svg  viewBox="0 0 56 56" fill="none" xmlns="http://www.w3.org/2000/svg">
<circle cx="28" cy="28" r="28" fill="currentColor"/>
<path d="M32.5249 26.281C32.6367 26.8868 32.7164 27.4925 32.7164 28.2782C32.7164 35.1378 28.2311 40 21.4793 40C15.0148 40 9.7793 34.6303 9.7793 28C9.7793 21.3697 15.0148 16 21.4793 16C24.6398 16 27.2734 17.1787 29.3165 19.1432L26.1401 22.2701C25.2781 21.4188 23.7618 20.4202 21.4793 20.4202C17.4889 20.4202 14.2326 23.809 14.2326 28C14.2326 32.191 17.4889 35.5798 21.4793 35.5798C26.1082 35.5798 27.8481 32.1582 28.1194 30.4065H21.4793V26.2809H32.5249V26.281ZM43.8231 26.6833V23.2H40.4105V26.6833H37.0143V30.1834H40.4105V33.6667H43.8231V30.1834H47.2193V26.6833H43.8231Z" fill="white"/>
</svg>
