<svg  viewBox="0 0 24 24" fill="none" xmlns="http://www.w3.org/2000/svg">
<path d="M4.5 6C4.5 6.55228 4.05228 7 3.5 7C2.94772 7 2.5 6.55228 2.5 6C2.5 5.44772 2.94772 5 3.5 5C4.05228 5 4.5 5.44772 4.5 6Z" fill="#646478" stroke="currentColor"/>
<path d="M4.5 12C4.5 12.5523 4.05228 13 3.5 13C2.94772 13 2.5 12.5523 2.5 12C2.5 11.4477 2.94772 11 3.5 11C4.05228 11 4.5 11.4477 4.5 12Z" fill="#646478" stroke="currentColor"/>
<path d="M4.5 18C4.5 18.5523 4.05228 19 3.5 19C2.94772 19 2.5 18.5523 2.5 18C2.5 17.4477 2.94772 17 3.5 17C4.05228 17 4.5 17.4477 4.5 18Z" fill="#646478" stroke="currentColor"/>
<path d="M8 6H22" stroke="currentColor" stroke-width="2"/>
<path d="M8 12H22" stroke="currentColor" stroke-width="2"/>
<path d="M8 18H22" stroke="currentColor" stroke-width="2"/>
</svg>
