<svg width="30" height="20" viewBox="0 0 30 20" fill="none" xmlns="http://www.w3.org/2000/svg">
<path d="M19.0799 16.9102H10.9199V2.90234H19.0199L19.0799 16.9102Z" fill="#FF5F00"/>
<path d="M11.46 9.93506C11.46 7.11043 12.84 4.57403 15 2.95995C13.38 1.69175 11.34 1 9.29999 1C4.14 1 0 4.97754 0 9.93506C0 14.8926 4.14 18.8701 9.29999 18.8701C11.4 18.8701 13.38 18.1784 15 16.9678C12.84 15.2961 11.46 12.7597 11.46 9.93506Z" fill="#EA001B"/>
<path d="M29.9999 9.93506C29.9999 14.8349 25.8599 18.8701 20.6999 18.8701C18.5999 18.8701 16.6199 18.1784 14.9399 16.9678C17.0999 15.3537 18.4799 12.8173 18.4799 9.99271C18.4799 7.16808 17.1599 4.51638 14.9999 2.9023C16.6199 1.69175 18.6599 1 20.6999 1C25.8599 1 29.9999 4.97754 29.9999 9.93506Z" fill="#F69D1B"/>
</svg>
