<svg width="46" height="20" viewBox="0 0 46 20" fill="none" xmlns="http://www.w3.org/2000/svg">
<path d="M25.5761 4.38298L22.6321 10.6525H22.3561V3H18.2161V16H21.7121C22.6321 16 23.4601 15.4468 23.8281 14.617L26.7721 8.34752H27.0481V16H31.2801V3H27.7841C26.8641 3 26.0361 3.55319 25.5761 4.38298Z" fill="#63A754"/>
<path d="M10.12 4.75177L8.372 10.6525H8.096L6.348 4.75177C6.072 3.73759 5.152 3 4.14 3H0V16H4.14V8.34752H4.416L6.808 16H9.752L12.144 8.34752H12.42V16H16.56V3H12.42C11.316 3 10.396 3.73759 10.12 4.75177Z" fill="#63A754"/>
<path d="M33.0281 8.90076V16H37.1681V11.8511H41.5841C43.5161 11.8511 45.1721 10.6525 45.7241 8.90076H33.0281Z" fill="#63A754"/>
<path d="M41.5841 3H32.4761C33.0281 6.04255 35.6961 8.34752 38.8241 8.34752H45.9081C46.0001 8.07092 46.0001 7.70213 46.0001 7.42553C46.0001 5.02837 43.9761 3 41.5841 3Z" fill="url(#paint0_linear_13_52)"/>
<defs>
<linearGradient id="paint0_linear_13_52" x1="32.4357" y1="5.65993" x2="46.0001" y2="5.65993" gradientUnits="userSpaceOnUse">
<stop offset="0.00985222" stop-color="#5EA4DF"/>
<stop offset="0.349" stop-color="#599BD7"/>
<stop offset="0.9076" stop-color="#4A82C3"/>
<stop offset="1" stop-color="#477DBF"/>
</linearGradient>
</defs>
</svg>
