<svg viewBox="0 0 25 24" fill="none" xmlns="http://www.w3.org/2000/svg">
<g clip-path="url(#clip0_86_499)">
<path d="M13.4056 20.9437C11.3498 21.1748 9.27709 20.6906 7.53643 19.5726C5.79576 18.4546 4.4934 16.7711 3.84853 14.8054C3.20367 12.8397 3.25569 10.7119 3.99583 8.78007C4.73598 6.84824 6.11905 5.23037 7.91227 4.19878C9.70548 3.16719 11.7993 2.78486 13.8414 3.11616C15.8835 3.44746 17.7491 4.47214 19.1241 6.01775C20.4992 7.56335 21.2999 9.5355 21.3913 11.6022C21.4828 13.669 20.8594 15.7041 19.6261 17.3651" stroke="currentColor" stroke-width="2"/>
<path d="M11.8196 15.9577C10.9962 15.837 10.2309 15.4624 9.63045 14.8861C9.02997 14.3099 8.62417 13.5607 8.4696 12.743C8.31503 11.9252 8.41938 11.0796 8.76811 10.3239C9.11684 9.56828 9.69259 8.94022 10.4151 8.52725C11.1377 8.11428 11.9711 7.93696 12.7992 8.02001C13.6272 8.10306 14.4088 8.44233 15.035 8.99056C15.6611 9.53879 16.1007 10.2687 16.2924 11.0785C16.4841 11.8884 16.4185 12.7379 16.1046 13.5087" stroke="currentColor" stroke-width="2"/>
<path d="M6.21289 5.56285L10.102 9.45194" stroke="currentColor" stroke-width="2"/>
<path d="M18.5872 5.56285L14.6981 9.45194" stroke="currentColor" stroke-width="2"/>
<path d="M10.1018 14.0481L6.21272 17.9372" stroke="currentColor" stroke-width="2"/>
</g>
<defs>
<clipPath id="clip0_86_499">
<rect width="25" height="24" fill="white" transform="translate(0.399902)"/>
</clipPath>
</defs>
</svg>
