<svg width="43" height="20" viewBox="0 0 43 20" fill="none" xmlns="http://www.w3.org/2000/svg">
<g clip-path="url(#clip0_13_45)">
<path d="M16.3569 3.25455L10.7079 16.7455H6.99812L4.21577 5.9697C4.04714 5.29091 3.87852 5.03636 3.37263 4.78182C2.5295 4.35758 1.18048 3.93333 -0.0842285 3.59394L8.51899e-05 3.1697H5.90204C6.74518 3.25455 7.41969 3.76364 7.58832 4.61212L9.02165 12.4182L12.6471 3.25455H16.3569ZM21.3315 3.25455L18.4648 16.7455H15.0079L17.8746 3.25455H21.3315ZM30.6903 12.3333C30.6903 8.7697 25.8001 8.6 25.8001 6.98788C25.8001 6.47879 26.306 5.9697 27.2334 5.88485C27.7393 5.8 29.0883 5.8 30.6903 6.47879L31.2805 3.59394C30.4373 3.25455 29.3413 3 27.9922 3C24.5354 3 22.1746 4.86667 22.0903 7.49697C22.0903 9.44849 23.7765 10.5515 25.1256 11.1455C26.4746 11.8242 26.8962 12.2485 26.8962 12.8424C26.8962 13.7758 25.8001 14.1152 24.7883 14.2C23.0177 14.2 22.006 13.6909 21.2471 13.3515L20.6569 16.3212C21.5001 16.6606 22.9334 17 24.5354 17C28.3295 17 30.6903 15.1333 30.6903 12.3333ZM39.7962 16.7455H43.0001L40.2177 3.25455H37.2667C36.5922 3.25455 36.002 3.67879 35.7491 4.27273L30.5216 16.8303H34.1471L34.906 14.7939H39.3746L39.7962 16.7455ZM35.9177 11.9939L37.7726 6.90303L38.7844 11.9939H35.9177Z" fill="#3E44CC"/>
</g>
<defs>
<clipPath id="clip0_13_45">
<rect width="43" height="20" fill="white"/>
</clipPath>
</defs>
</svg>
