<svg  viewBox="0 0 13 12" fill="none" xmlns="http://www.w3.org/2000/svg">
<path d="M2.88779 2.28769C3.40924 1.76624 4.0347 1.36049 4.72342 1.09688C5.41214 0.833271 6.14867 0.717714 6.88503 0.757738C7.62139 0.797761 8.34106 0.992467 8.99715 1.32917C9.65324 1.66588 10.231 2.13702 10.6929 2.71192C11.1548 3.28682 11.4903 3.95257 11.6777 4.66581C11.8651 5.37905 11.9002 6.12376 11.7806 6.85144C11.661 7.57913 11.3894 8.27345 10.9836 8.88918C10.5778 9.50492 10.0468 10.0282 9.4252 10.4251" stroke="currentColor" stroke-width="1.5"/>
<path d="M6.6001 3V6.5L8.1001 7.5" stroke="currentColor" stroke-width="1.5"/>
<circle cx="2.6001" cy="9" r="1" fill="#646478"/>
<circle cx="1.6001" cy="5" r="1" fill="#646478"/>
<circle cx="6.6001" cy="11" r="1" fill="#646478"/>
</svg>
