<svg width="48" height="48" viewBox="0 0 48 48" fill="none" xmlns="http://www.w3.org/2000/svg">
<circle cx="24" cy="24" r="22.5" fill="white"/>
<path d="M34.9636 18.6843C35.1241 18.1607 34.9636 17.7766 34.2044 17.7766H31.6897C31.0498 17.7766 30.7574 18.1088 30.5968 18.4737C30.5968 18.4737 29.3182 21.5359 27.5064 23.5215C26.9216 24.0992 26.6544 24.2817 26.3356 24.2817C26.1762 24.2817 25.9445 24.0992 25.9445 23.5755V18.6843C25.9445 18.0559 25.7599 17.7766 25.2267 17.7766H21.275C20.876 17.7766 20.6352 18.0672 20.6352 18.3442C20.6352 18.9389 21.5411 19.0763 21.634 20.7521V24.3875C21.634 25.1838 21.4883 25.329 21.1673 25.329C20.3152 25.329 18.2419 22.2556 17.0115 18.7373C16.7718 18.0537 16.5299 17.7777 15.8877 17.7777H13.3741C12.6551 17.7777 12.5117 18.11 12.5117 18.4749C12.5117 19.1303 13.3637 22.3738 16.4806 26.6636C18.5584 29.5929 21.4837 31.1809 24.1488 31.1809C25.7462 31.1809 25.9434 30.8284 25.9434 30.2202V28.0061C25.9434 27.301 26.0959 27.1591 26.6016 27.1591C26.9732 27.1591 27.613 27.3438 29.1049 28.755C30.809 30.4286 31.0911 31.1797 32.0486 31.1797H34.5622C35.2801 31.1797 35.639 30.8272 35.4326 30.1312C35.2067 29.4386 34.3925 28.4306 33.3123 27.238C32.7252 26.5577 31.8479 25.8257 31.5807 25.4597C31.208 24.9878 31.3158 24.7794 31.5807 24.3605C31.5807 24.3605 34.6448 20.1248 34.9636 18.6843Z" fill="#4392D5"/>
</svg>
