<svg viewBox="0 0 40 40" fill="none" xmlns="http://www.w3.org/2000/svg">
<circle cx="20" cy="20" r="18.75" fill="currentColor"/>
<path d="M28.3237 16.5675C28.3134 15.8643 28.1832 15.1667 27.9338 14.5091C27.4974 13.386 26.6089 12.498 25.484 12.0633C24.8336 11.819 24.146 11.688 23.45 11.6732C22.555 11.6332 22.2712 11.6221 19.999 11.6221C17.7269 11.6221 17.4357 11.6221 16.5471 11.6732C15.8521 11.688 15.1645 11.819 14.5141 12.0633C13.3892 12.498 12.4997 13.386 12.0643 14.5091C11.8196 15.1584 11.6874 15.8448 11.6744 16.5387C11.6344 17.4332 11.6223 17.7165 11.6223 19.9849C11.6223 22.2532 11.6223 22.543 11.6744 23.4311C11.6884 24.1259 11.8196 24.8114 12.0643 25.4625C12.5006 26.5846 13.3892 27.4727 14.515 27.9074C15.1626 28.16 15.8502 28.3031 16.5481 28.3254C17.4441 28.3653 17.7278 28.3774 20 28.3774C22.2721 28.3774 22.5633 28.3774 23.4519 28.3254C24.1469 28.3114 24.8345 28.1805 25.4858 27.9362C26.6107 27.5005 27.4993 26.6125 27.9357 25.4904C28.1804 24.8402 28.3116 24.1547 28.3255 23.4589C28.3655 22.5653 28.3776 22.282 28.3776 20.0127C28.3758 17.7444 28.3758 17.4564 28.3237 16.5675ZM19.9935 24.2745C17.6171 24.2745 15.692 22.3526 15.692 19.9802C15.692 17.6078 17.6171 15.686 19.9935 15.686C22.3679 15.686 24.2949 17.6078 24.2949 19.9802C24.2949 22.3526 22.3679 24.2745 19.9935 24.2745ZM24.4661 16.5285C23.9106 16.5285 23.4631 16.0807 23.4631 15.5271C23.4631 14.9735 23.9106 14.5258 24.4661 14.5258C25.0197 14.5258 25.4682 14.9735 25.4682 15.5271C25.4682 16.0807 25.0197 16.5285 24.4661 16.5285Z" fill="white"/>
<path d="M19.9935 22.7697C21.5366 22.7697 22.7876 21.5208 22.7876 19.9802C22.7876 18.4396 21.5366 17.1908 19.9935 17.1908C18.4503 17.1908 17.1994 18.4396 17.1994 19.9802C17.1994 21.5208 18.4503 22.7697 19.9935 22.7697Z" fill="white"/>
</svg>
