<svg  viewBox="0 0 17 16" fill="none" xmlns="http://www.w3.org/2000/svg">
<path d="M2.94995 14.9016C2.94995 13.5092 3.50307 12.1738 4.48764 11.1893C5.47221 10.2047 6.80757 9.65158 8.19995 9.65158C9.59234 9.65158 10.9277 10.2047 11.9123 11.1893C12.8968 12.1738 13.45 13.5092 13.45 14.9016" stroke="currentColor" stroke-width="1.5"/>
<path d="M8.19995 2.75253C8.74385 2.75253 9.27553 2.91382 9.72777 3.21599C10.18 3.51817 10.5325 3.94766 10.7406 4.45015C10.9488 4.95265 11.0032 5.50558 10.8971 6.03903C10.791 6.57248 10.5291 7.06248 10.1445 7.44708C9.7599 7.83167 9.2699 8.09358 8.73645 8.19969C8.203 8.3058 7.65007 8.25134 7.14757 8.0432C6.64507 7.83506 6.21558 7.48259 5.91341 7.03035C5.61124 6.57812 5.44995 6.04643 5.44995 5.50253" stroke="currentColor" stroke-width="1.5"/>
</svg>
