<svg  viewBox="0 0 25 24" fill="none" xmlns="http://www.w3.org/2000/svg">
<path d="M19.2168 5.56604L5.766 19.0168" stroke="currentColor" stroke-width="2"/>
<path d="M10.2 6.99988C10.2 7.39384 10.1224 7.78395 9.97159 8.14793C9.82083 8.51191 9.59985 8.84262 9.32127 9.1212C9.0427 9.39977 8.71198 9.62075 8.348 9.77152C7.98402 9.92228 7.59392 9.99988 7.19995 9.99988C6.80599 9.99988 6.41588 9.92228 6.0519 9.77152C5.68792 9.62075 5.35721 9.39977 5.07863 9.1212C4.80005 8.84262 4.57908 8.5119 4.42831 8.14793C4.27755 7.78395 4.19995 7.39384 4.19995 6.99988C4.19995 6.60591 4.27755 6.2158 4.42831 5.85183C4.57908 5.48785 4.80006 5.15713 5.07863 4.87856C5.35721 4.59998 5.68792 4.379 6.0519 4.22824C6.41588 4.07748 6.80599 3.99988 7.19995 3.99988C7.59392 3.99988 7.98403 4.07748 8.348 4.22824C8.71198 4.379 9.0427 4.59998 9.32127 4.87856C9.59985 5.15713 9.82083 5.48785 9.97159 5.85183C10.1224 6.2158 10.2 6.60591 10.2 6.99988L10.2 6.99988Z" stroke="currentColor" stroke-width="2"/>
<path d="M18.3857 11.3859C18.8322 11.8324 19.1864 12.3624 19.428 12.9458C19.6697 13.5292 19.7941 14.1544 19.7941 14.7859C19.7941 15.4173 19.6697 16.0426 19.428 16.626C19.1864 17.2093 18.8322 17.7394 18.3857 18.1859C17.9392 18.6324 17.4092 18.9866 16.8258 19.2282C16.2424 19.4699 15.6172 19.5942 14.9857 19.5942C14.3543 19.5942 13.729 19.4699 13.1456 19.2282C12.5623 18.9866 12.0322 18.6324 11.5857 18.1859" stroke="currentColor" stroke-width="2"/>
</svg>
