<svg  viewBox="0 0 13 12" fill="none" xmlns="http://www.w3.org/2000/svg">
<path d="M6.3999 7.125C6.3999 6.40234 6.98658 6.07132 7.23326 5.91871C7.47993 5.7661 7.67219 5.54918 7.78572 5.29539C7.89925 5.04161 7.92896 4.76235 7.87108 4.49293C7.8132 4.22351 7.67034 3.97604 7.46056 3.7818C7.25078 3.58756 6.98351 3.45528 6.69254 3.40169C6.40157 3.3481 6.09997 3.3756 5.82588 3.48072C5.55179 3.58585 5.31752 3.76386 5.1527 3.99226C4.98788 4.22067 4.8999 4.48919 4.8999 4.76389" stroke="currentColor" stroke-width="1.125"/>
<path d="M11.3289 3.70402C11.8665 4.8582 11.9821 6.16446 11.6554 7.39509C11.3287 8.62573 10.5805 9.7027 9.54125 10.4383C8.50197 11.1739 7.23751 11.5214 5.96828 11.4203C4.69904 11.3193 3.50552 10.776 2.59575 9.88521C1.68598 8.99442 1.11767 7.81261 0.989864 6.54579C0.862061 5.27896 1.18288 4.00746 1.89639 2.95291C2.6099 1.89835 3.67086 1.12764 4.89434 0.77509C6.11782 0.422544 7.42621 0.51053 8.59147 1.02371" stroke="currentColor" stroke-width="1.125"/>
<path d="M6.7749 8.62503C6.7749 8.83214 6.60701 9.00003 6.3999 9.00003C6.1928 9.00003 6.0249 8.83214 6.0249 8.62503C6.0249 8.41792 6.1928 8.25003 6.3999 8.25003C6.60701 8.25003 6.7749 8.41792 6.7749 8.62503Z" fill="#646478" stroke="currentColor" stroke-width="0.75"/>
</svg>
