<svg width="32" height="24" viewBox="0 0 32 24" fill="none" xmlns="http://www.w3.org/2000/svg">
<mask id="mask0_212_758" style="mask-type:alpha" maskUnits="userSpaceOnUse" x="0" y="0" width="32" height="24">
<rect width="32" height="24" rx="4" fill="white"/>
</mask>
<g mask="url(#mask0_212_758)">
<path fill-rule="evenodd" clip-rule="evenodd" d="M0 4C0 1.79086 1.79086 0 4 0H28C30.2091 0 32 1.79086 32 4V20C32 22.2091 30.2091 24 28 24H4C1.79086 24 0 22.2091 0 20V4Z" fill="#F7FCFF"/>
<path fill-rule="evenodd" clip-rule="evenodd" d="M1 14.6666C0.447715 14.6666 0 15.1143 0 15.6666C0 16.2189 0.447715 16.6666 1 16.6666H31C31.5523 16.6666 32 16.2189 32 15.6666C32 15.1143 31.5523 14.6666 31 14.6666H1Z" fill="#E31D1C"/>
<path fill-rule="evenodd" clip-rule="evenodd" d="M1 18.3334C0.447715 18.3334 0 18.7811 0 19.3334C0 19.8857 0.447715 20.3334 1 20.3334H31C31.5523 20.3334 32 19.8857 32 19.3334C32 18.7811 31.5523 18.3334 31 18.3334H1Z" fill="#E31D1C"/>
<path fill-rule="evenodd" clip-rule="evenodd" d="M1 7.33337C0.447715 7.33337 0 7.78109 0 8.33337C0 8.88566 0.447715 9.33337 1 9.33337H31C31.5523 9.33337 32 8.88566 32 8.33337C32 7.78109 31.5523 7.33337 31 7.33337H1Z" fill="#E31D1C"/>
<path fill-rule="evenodd" clip-rule="evenodd" d="M1 22C0.447715 22 0 22.4477 0 23C0 23.5523 0.447715 24 1 24H31C31.5523 24 32 23.5523 32 23C32 22.4477 31.5523 22 31 22H1Z" fill="#E31D1C"/>
<path fill-rule="evenodd" clip-rule="evenodd" d="M1 11C0.447715 11 0 11.4477 0 12C0 12.5523 0.447715 13 1 13H31C31.5523 13 32 12.5523 32 12C32 11.4477 31.5523 11 31 11H1Z" fill="#E31D1C"/>
<path fill-rule="evenodd" clip-rule="evenodd" d="M1 0C0.447715 0 0 0.447715 0 1C0 1.55228 0.447715 2 1 2H31C31.5523 2 32 1.55228 32 1C32 0.447715 31.5523 0 31 0H1Z" fill="#E31D1C"/>
<path fill-rule="evenodd" clip-rule="evenodd" d="M1 3.66663C0.447715 3.66663 0 4.11434 0 4.66663C0 5.21891 0.447715 5.66663 1 5.66663H31C31.5523 5.66663 32 5.21891 32 4.66663C32 4.11434 31.5523 3.66663 31 3.66663H1Z" fill="#E31D1C"/>
<rect width="20" height="13" rx="4" fill="#2E42A5"/>
<path fill-rule="evenodd" clip-rule="evenodd" d="M1.86831 3.04461C1.78077 2.98118 1.66242 2.98041 1.5739 3.04247C1.37847 3.17948 1.11785 2.99778 1.18019 2.76739L1.19825 2.70065C1.22458 2.60337 1.19365 2.49956 1.11837 2.43255L1.09489 2.41165C0.920531 2.25644 1.03032 1.96799 1.26375 1.96799C1.36904 1.96799 1.46348 1.90284 1.50106 1.80449C1.5822 1.59217 1.87974 1.58316 1.97269 1.79059L1.98949 1.82807C2.02763 1.9132 2.11222 1.96799 2.2055 1.96799C2.4154 1.96799 2.52146 2.22092 2.37433 2.37062L2.31248 2.43356C2.24625 2.50094 2.21946 2.59772 2.24161 2.68957L2.2634 2.77997C2.3186 3.00889 2.059 3.18278 1.86831 3.04461ZM5.86831 3.04461C5.78077 2.98118 5.66242 2.98041 5.5739 3.04247C5.37847 3.17948 5.11785 2.99778 5.18019 2.76739L5.19825 2.70065C5.22458 2.60337 5.19365 2.49956 5.11837 2.43255L5.09489 2.41165C4.92053 2.25644 5.03032 1.96799 5.26375 1.96799C5.36904 1.96799 5.46348 1.90284 5.50106 1.80449C5.5822 1.59217 5.87974 1.58316 5.97269 1.79059L5.98949 1.82807C6.02763 1.9132 6.11222 1.96799 6.2055 1.96799C6.4154 1.96799 6.52146 2.22092 6.37433 2.37062L6.31248 2.43356C6.24625 2.50094 6.21946 2.59772 6.24161 2.68957L6.2634 2.77997C6.3186 3.00889 6.059 3.18278 5.86831 3.04461ZM9.18019 2.76739C9.11785 2.99778 9.37847 3.17948 9.5739 3.04247C9.66242 2.98041 9.78077 2.98118 9.86831 3.04461C10.059 3.18278 10.3186 3.00889 10.2634 2.77997L10.2416 2.68957C10.2195 2.59772 10.2463 2.50094 10.3125 2.43356L10.3743 2.37062C10.5215 2.22092 10.4154 1.96799 10.2055 1.96799C10.1122 1.96799 10.0276 1.9132 9.98949 1.82807L9.97269 1.79059C9.87974 1.58316 9.5822 1.59217 9.50106 1.80449C9.46348 1.90284 9.36904 1.96799 9.26375 1.96799C9.03032 1.96799 8.92053 2.25644 9.09489 2.41165L9.11837 2.43255C9.19365 2.49956 9.22458 2.60337 9.19825 2.70065L9.18019 2.76739ZM13.8683 3.04461C13.7808 2.98118 13.6624 2.98041 13.5739 3.04247C13.3785 3.17948 13.1178 2.99778 13.1802 2.76739L13.1983 2.70065C13.2246 2.60337 13.1936 2.49956 13.1184 2.43255L13.0949 2.41165C12.9205 2.25644 13.0303 1.96799 13.2638 1.96799C13.369 1.96799 13.4635 1.90284 13.5011 1.80449C13.5822 1.59217 13.8797 1.58316 13.9727 1.79059L13.9895 1.82807C14.0276 1.9132 14.1122 1.96799 14.2055 1.96799C14.4154 1.96799 14.5215 2.22092 14.3743 2.37062L14.3125 2.43356C14.2463 2.50094 14.2195 2.59772 14.2416 2.68957L14.2634 2.77997C14.3186 3.00889 14.059 3.18278 13.8683 3.04461ZM1.18019 6.76739C1.11785 6.99778 1.37847 7.17948 1.5739 7.04247C1.66242 6.98041 1.78077 6.98118 1.86831 7.04461C2.059 7.18278 2.3186 7.00889 2.2634 6.77997L2.24161 6.68957C2.21946 6.59772 2.24625 6.50094 2.31248 6.43356L2.37433 6.37062C2.52146 6.22092 2.4154 5.96799 2.2055 5.96799C2.11222 5.96799 2.02763 5.9132 1.98949 5.82807L1.97269 5.79059C1.87974 5.58316 1.5822 5.59217 1.50106 5.80449C1.46348 5.90284 1.36904 5.96799 1.26375 5.96799C1.03032 5.96799 0.920531 6.25644 1.09489 6.41165L1.11837 6.43255C1.19365 6.49956 1.22458 6.60337 1.19825 6.70065L1.18019 6.76739ZM5.86831 7.04461C5.78077 6.98118 5.66242 6.98041 5.5739 7.04247C5.37847 7.17948 5.11785 6.99778 5.18019 6.76739L5.19825 6.70065C5.22458 6.60337 5.19365 6.49956 5.11837 6.43255L5.09489 6.41165C4.92053 6.25644 5.03032 5.96799 5.26375 5.96799C5.36904 5.96799 5.46348 5.90284 5.50106 5.80449C5.5822 5.59217 5.87974 5.58316 5.97269 5.79059L5.98949 5.82807C6.02763 5.9132 6.11222 5.96799 6.2055 5.96799C6.4154 5.96799 6.52146 6.22092 6.37433 6.37062L6.31248 6.43356C6.24625 6.50094 6.21946 6.59772 6.24161 6.68957L6.2634 6.77997C6.3186 7.00889 6.059 7.18278 5.86831 7.04461ZM9.18019 6.76739C9.11785 6.99778 9.37847 7.17948 9.5739 7.04247C9.66242 6.98041 9.78077 6.98118 9.86831 7.04461C10.059 7.18278 10.3186 7.00889 10.2634 6.77997L10.2416 6.68957C10.2195 6.59772 10.2463 6.50094 10.3125 6.43356L10.3743 6.37062C10.5215 6.22092 10.4154 5.96799 10.2055 5.96799C10.1122 5.96799 10.0276 5.9132 9.98949 5.82807L9.97269 5.79059C9.87974 5.58316 9.5822 5.59217 9.50106 5.80449C9.46348 5.90284 9.36904 5.96799 9.26375 5.96799C9.03032 5.96799 8.92053 6.25644 9.09489 6.41165L9.11837 6.43255C9.19365 6.49956 9.22458 6.60337 9.19825 6.70065L9.18019 6.76739ZM13.8683 7.04461C13.7808 6.98118 13.6624 6.98041 13.5739 7.04247C13.3785 7.17948 13.1178 6.99778 13.1802 6.76739L13.1983 6.70065C13.2246 6.60337 13.1936 6.49956 13.1184 6.43255L13.0949 6.41165C12.9205 6.25644 13.0303 5.96799 13.2638 5.96799C13.369 5.96799 13.4635 5.90284 13.5011 5.80449C13.5822 5.59217 13.8797 5.58316 13.9727 5.79059L13.9895 5.82807C14.0276 5.9132 14.1122 5.96799 14.2055 5.96799C14.4154 5.96799 14.5215 6.22092 14.3743 6.37062L14.3125 6.43356C14.2463 6.50094 14.2195 6.59772 14.2416 6.68957L14.2634 6.77997C14.3186 7.00889 14.059 7.18278 13.8683 7.04461ZM1.18019 10.7674C1.11785 10.9978 1.37847 11.1795 1.5739 11.0425C1.66242 10.9804 1.78077 10.9812 1.86831 11.0446C2.059 11.1828 2.3186 11.0089 2.2634 10.78L2.24161 10.6896C2.21946 10.5977 2.24625 10.5009 2.31248 10.4336L2.37433 10.3706C2.52146 10.2209 2.4154 9.96799 2.2055 9.96799C2.11222 9.96799 2.02763 9.9132 1.98949 9.82807L1.97269 9.79059C1.87974 9.58316 1.5822 9.59217 1.50106 9.80449C1.46348 9.90284 1.36904 9.96799 1.26375 9.96799C1.03032 9.96799 0.92053 10.2564 1.09489 10.4116L1.11837 10.4326C1.19365 10.4996 1.22458 10.6034 1.19825 10.7006L1.18019 10.7674ZM5.86831 11.0446C5.78077 10.9812 5.66242 10.9804 5.5739 11.0425C5.37847 11.1795 5.11785 10.9978 5.18019 10.7674L5.19825 10.7006C5.22458 10.6034 5.19365 10.4996 5.11837 10.4326L5.09489 10.4116C4.92053 10.2564 5.03032 9.96799 5.26375 9.96799C5.36904 9.96799 5.46348 9.90284 5.50106 9.80449C5.5822 9.59217 5.87974 9.58316 5.97269 9.79059L5.98949 9.82807C6.02763 9.9132 6.11222 9.96799 6.2055 9.96799C6.4154 9.96799 6.52146 10.2209 6.37433 10.3706L6.31248 10.4336C6.24625 10.5009 6.21946 10.5977 6.24161 10.6896L6.2634 10.78C6.3186 11.0089 6.059 11.1828 5.86831 11.0446ZM9.18019 10.7674C9.11785 10.9978 9.37847 11.1795 9.5739 11.0425C9.66242 10.9804 9.78077 10.9812 9.86831 11.0446C10.059 11.1828 10.3186 11.0089 10.2634 10.78L10.2416 10.6896C10.2195 10.5977 10.2463 10.5009 10.3125 10.4336L10.3743 10.3706C10.5215 10.2209 10.4154 9.96799 10.2055 9.96799C10.1122 9.96799 10.0276 9.9132 9.98949 9.82807L9.97269 9.79059C9.87974 9.58316 9.5822 9.59217 9.50106 9.80449C9.46348 9.90284 9.36904 9.96799 9.26375 9.96799C9.03032 9.96799 8.92053 10.2564 9.09489 10.4116L9.11837 10.4326C9.19365 10.4996 9.22458 10.6034 9.19825 10.7006L9.18019 10.7674ZM13.8683 11.0446C13.7808 10.9812 13.6624 10.9804 13.5739 11.0425C13.3785 11.1795 13.1178 10.9978 13.1802 10.7674L13.1983 10.7006C13.2246 10.6034 13.1936 10.4996 13.1184 10.4326L13.0949 10.4116C12.9205 10.2564 13.0303 9.96799 13.2638 9.96799C13.369 9.96799 13.4635 9.90284 13.5011 9.80449C13.5822 9.59217 13.8797 9.58316 13.9727 9.79059L13.9895 9.82807C14.0276 9.9132 14.1122 9.96799 14.2055 9.96799C14.4154 9.96799 14.5215 10.2209 14.3743 10.3706L14.3125 10.4336C14.2463 10.5009 14.2195 10.5977 14.2416 10.6896L14.2634 10.78C14.3186 11.0089 14.059 11.1828 13.8683 11.0446ZM17.1802 2.76739C17.1178 2.99778 17.3785 3.17948 17.5739 3.04247C17.6624 2.98041 17.7808 2.98118 17.8683 3.04461C18.059 3.18278 18.3186 3.00889 18.2634 2.77997L18.2416 2.68957C18.2195 2.59772 18.2463 2.50094 18.3125 2.43356L18.3743 2.37062C18.5215 2.22092 18.4154 1.96799 18.2055 1.96799C18.1122 1.96799 18.0276 1.9132 17.9895 1.82807L17.9727 1.79059C17.8797 1.58316 17.5822 1.59217 17.5011 1.80449C17.4635 1.90284 17.369 1.96799 17.2638 1.96799C17.0303 1.96799 16.9205 2.25644 17.0949 2.41165L17.1184 2.43255C17.1936 2.49956 17.2246 2.60337 17.1983 2.70065L17.1802 2.76739ZM17.8683 7.04461C17.7808 6.98118 17.6624 6.98041 17.5739 7.04247C17.3785 7.17948 17.1178 6.99778 17.1802 6.76739L17.1983 6.70065C17.2246 6.60337 17.1936 6.49956 17.1184 6.43255L17.0949 6.41165C16.9205 6.25644 17.0303 5.96799 17.2638 5.96799C17.369 5.96799 17.4635 5.90284 17.5011 5.8045C17.5822 5.59217 17.8797 5.58316 17.9727 5.79059L17.9895 5.82807C18.0276 5.9132 18.1122 5.96799 18.2055 5.96799C18.4154 5.96799 18.5215 6.22092 18.3743 6.37062L18.3125 6.43356C18.2463 6.50094 18.2195 6.59772 18.2416 6.68957L18.2634 6.77996C18.3186 7.00889 18.059 7.18278 17.8683 7.04461ZM17.1802 10.7674C17.1178 10.9978 17.3785 11.1795 17.5739 11.0425C17.6624 10.9804 17.7808 10.9812 17.8683 11.0446C18.059 11.1828 18.3186 11.0089 18.2634 10.78L18.2416 10.6896C18.2195 10.5977 18.2463 10.5009 18.3125 10.4336L18.3743 10.3706C18.5215 10.2209 18.4154 9.96799 18.2055 9.96799C18.1122 9.96799 18.0276 9.9132 17.9895 9.82807L17.9727 9.79059C17.8797 9.58316 17.5822 9.59217 17.5011 9.80449C17.4635 9.90284 17.369 9.96799 17.2638 9.96799C17.0303 9.96799 16.9205 10.2564 17.0949 10.4116L17.1184 10.4326C17.1936 10.4996 17.2246 10.6034 17.1983 10.7006L17.1802 10.7674ZM3.86831 5.04461C3.78077 4.98118 3.66242 4.98041 3.5739 5.04247C3.37847 5.17948 3.11785 4.99778 3.18019 4.76739L3.19825 4.70065C3.22458 4.60337 3.19365 4.49956 3.11837 4.43255L3.09489 4.41165C2.92053 4.25644 3.03032 3.96799 3.26375 3.96799C3.36904 3.96799 3.46348 3.90284 3.50106 3.80449C3.5822 3.59217 3.87974 3.58316 3.97269 3.79059L3.98949 3.82807C4.02763 3.9132 4.11222 3.96799 4.2055 3.96799C4.4154 3.96799 4.52146 4.22092 4.37433 4.37062L4.31248 4.43356C4.24625 4.50094 4.21946 4.59772 4.24161 4.68957L4.2634 4.77997C4.3186 5.00889 4.059 5.18278 3.86831 5.04461ZM7.18019 4.76739C7.11785 4.99778 7.37847 5.17948 7.5739 5.04247C7.66242 4.98041 7.78077 4.98118 7.86831 5.04461C8.059 5.18278 8.3186 5.00889 8.2634 4.77997L8.24161 4.68957C8.21946 4.59772 8.24625 4.50094 8.31248 4.43356L8.37433 4.37062C8.52146 4.22092 8.4154 3.96799 8.2055 3.96799C8.11222 3.96799 8.02763 3.9132 7.98949 3.82807L7.97269 3.79059C7.87974 3.58316 7.5822 3.59217 7.50106 3.80449C7.46348 3.90284 7.36904 3.96799 7.26375 3.96799C7.03032 3.96799 6.92053 4.25644 7.09489 4.41165L7.11837 4.43255C7.19365 4.49956 7.22458 4.60337 7.19825 4.70065L7.18019 4.76739ZM11.8683 5.04461C11.7808 4.98118 11.6624 4.98041 11.5739 5.04247C11.3785 5.17948 11.1178 4.99778 11.1802 4.76739L11.1983 4.70065C11.2246 4.60337 11.1936 4.49956 11.1184 4.43255L11.0949 4.41165C10.9205 4.25644 11.0303 3.96799 11.2638 3.96799C11.369 3.96799 11.4635 3.90284 11.5011 3.80449C11.5822 3.59217 11.8797 3.58316 11.9727 3.79059L11.9895 3.82807C12.0276 3.9132 12.1122 3.96799 12.2055 3.96799C12.4154 3.96799 12.5215 4.22092 12.3743 4.37062L12.3125 4.43356C12.2463 4.50094 12.2195 4.59772 12.2416 4.68957L12.2634 4.77997C12.3186 5.00889 12.059 5.18278 11.8683 5.04461ZM3.18019 8.76739C3.11785 8.99778 3.37847 9.17948 3.5739 9.04247C3.66242 8.98041 3.78077 8.98118 3.86831 9.04461C4.059 9.18278 4.3186 9.00889 4.2634 8.77997L4.24161 8.68957C4.21946 8.59772 4.24625 8.50094 4.31248 8.43356L4.37433 8.37062C4.52146 8.22092 4.4154 7.96799 4.2055 7.96799C4.11222 7.96799 4.02763 7.9132 3.98949 7.82807L3.97269 7.79059C3.87974 7.58316 3.5822 7.59217 3.50106 7.80449C3.46348 7.90284 3.36904 7.96799 3.26375 7.96799C3.03032 7.96799 2.92053 8.25644 3.09489 8.41165L3.11837 8.43255C3.19365 8.49956 3.22458 8.60337 3.19825 8.70065L3.18019 8.76739ZM7.86831 9.04461C7.78077 8.98118 7.66242 8.98041 7.5739 9.04247C7.37847 9.17948 7.11785 8.99778 7.18019 8.76739L7.19825 8.70065C7.22458 8.60337 7.19365 8.49956 7.11837 8.43255L7.09489 8.41165C6.92053 8.25644 7.03032 7.96799 7.26375 7.96799C7.36904 7.96799 7.46348 7.90284 7.50106 7.80449C7.5822 7.59217 7.87974 7.58316 7.97269 7.79059L7.98949 7.82807C8.02763 7.9132 8.11222 7.96799 8.2055 7.96799C8.4154 7.96799 8.52146 8.22092 8.37433 8.37062L8.31248 8.43356C8.24625 8.50094 8.21946 8.59772 8.24161 8.68957L8.2634 8.77997C8.3186 9.00889 8.059 9.18278 7.86831 9.04461ZM11.1802 8.76739C11.1178 8.99778 11.3785 9.17948 11.5739 9.04247C11.6624 8.98041 11.7808 8.98118 11.8683 9.04461C12.059 9.18278 12.3186 9.00889 12.2634 8.77997L12.2416 8.68957C12.2195 8.59772 12.2463 8.50094 12.3125 8.43356L12.3743 8.37062C12.5215 8.22092 12.4154 7.96799 12.2055 7.96799C12.1122 7.96799 12.0276 7.9132 11.9895 7.82807L11.9727 7.79059C11.8797 7.58316 11.5822 7.59217 11.5011 7.80449C11.4635 7.90284 11.369 7.96799 11.2638 7.96799C11.0303 7.96799 10.9205 8.25644 11.0949 8.41165L11.1184 8.43255C11.1936 8.49956 11.2246 8.60337 11.1983 8.70065L11.1802 8.76739ZM15.8683 5.04461C15.7808 4.98118 15.6624 4.98041 15.5739 5.04247C15.3785 5.17948 15.1178 4.99778 15.1802 4.76739L15.1983 4.70065C15.2246 4.60337 15.1936 4.49956 15.1184 4.43255L15.0949 4.41165C14.9205 4.25644 15.0303 3.96799 15.2638 3.96799C15.369 3.96799 15.4635 3.90284 15.5011 3.80449C15.5822 3.59217 15.8797 3.58316 15.9727 3.79059L15.9895 3.82807C16.0276 3.9132 16.1122 3.96799 16.2055 3.96799C16.4154 3.96799 16.5215 4.22092 16.3743 4.37062L16.3125 4.43356C16.2463 4.50094 16.2195 4.59772 16.2416 4.68957L16.2634 4.77997C16.3186 5.00889 16.059 5.18278 15.8683 5.04461ZM15.1802 8.76739C15.1178 8.99778 15.3785 9.17948 15.5739 9.04247C15.6624 8.98041 15.7808 8.98118 15.8683 9.04461C16.059 9.18278 16.3186 9.00889 16.2634 8.77997L16.2416 8.68957C16.2195 8.59772 16.2463 8.50094 16.3125 8.43356L16.3743 8.37062C16.5215 8.22092 16.4154 7.96799 16.2055 7.96799C16.1122 7.96799 16.0276 7.9132 15.9895 7.82807L15.9727 7.79059C15.8797 7.58316 15.5822 7.59217 15.5011 7.80449C15.4635 7.90284 15.369 7.96799 15.2638 7.96799C15.0303 7.96799 14.9205 8.25644 15.0949 8.41165L15.1184 8.43255C15.1936 8.49956 15.2246 8.60337 15.1983 8.70065L15.1802 8.76739Z" fill="#F7FCFF"/>
</g>
</svg>
