<svg viewBox="0 0 46 46" fill="none" xmlns="http://www.w3.org/2000/svg">
<circle cx="23" cy="23" r="22.5" fill="currentColor"/>
<path d="M33.9624 17.6843C34.1229 17.1607 33.9624 16.7766 33.2032 16.7766H30.6884C30.0486 16.7766 29.7562 17.1088 29.5956 17.4737C29.5956 17.4737 28.317 20.5359 26.5052 22.5215C25.9203 23.0992 25.6531 23.2817 25.3344 23.2817C25.175 23.2817 24.9433 23.0992 24.9433 22.5755V17.6843C24.9433 17.0559 24.7587 16.7766 24.2255 16.7766H20.2738C19.8748 16.7766 19.6339 17.0672 19.6339 17.3442C19.6339 17.9389 20.5399 18.0763 20.6328 19.7521V23.3875C20.6328 24.1838 20.4871 24.329 20.166 24.329C19.314 24.329 17.2407 21.2556 16.0103 17.7373C15.7706 17.0537 15.5286 16.7777 14.8865 16.7777H12.3728C11.6538 16.7777 11.5105 17.11 11.5105 17.4749C11.5105 18.1303 12.3625 21.3738 15.4793 25.6636C17.5572 28.5929 20.4825 30.1809 23.1475 30.1809C24.7449 30.1809 24.9422 29.8284 24.9422 29.2202V27.0061C24.9422 26.301 25.0947 26.1591 25.6004 26.1591C25.9719 26.1591 26.6118 26.3438 28.1037 27.755C29.8078 29.4286 30.0899 30.1797 31.0474 30.1797H33.561C34.2789 30.1797 34.6378 29.8272 34.4314 29.1312C34.2055 28.4386 33.3913 27.4306 32.3111 26.238C31.7239 25.5577 30.8467 24.8257 30.5795 24.4597C30.2068 23.9878 30.3146 23.7794 30.5795 23.3605C30.5795 23.3605 33.6436 19.1248 33.9624 17.6843Z" fill="white"/>
</svg>
