<svg  viewBox="0 0 17 16" fill="none" xmlns="http://www.w3.org/2000/svg">
<path d="M1.94995 5.14995V12.1106V12.1106C5.77641 14.4918 10.6235 14.4918 14.45 12.1106V12.1106V5.14995" stroke="currentColor" stroke-width="1.5"/>
<path d="M1.8999 9V9C5.81789 11.1767 10.5819 11.1767 14.4999 9V9" stroke="currentColor" stroke-width="1.5"/>
<path fill-rule="evenodd" clip-rule="evenodd" d="M12.5342 4.2905C13.4934 4.72215 13.6634 5.08158 13.6935 5.15C13.6634 5.21843 13.4934 5.57785 12.5342 6.0095C11.5021 6.47393 9.97107 6.8 8.19995 6.8V8.3C12.0659 8.3 15.2 6.8897 15.2 5.15C15.2 3.4103 12.0659 2 8.19995 2C4.33396 2 1.19995 3.4103 1.19995 5.15C1.19995 6.31594 2.60765 7.33394 4.69995 7.87859V6.31999C4.39506 6.2264 4.11576 6.12201 3.86575 6.0095C2.90651 5.57785 2.73652 5.21842 2.70642 5.15C2.73652 5.08158 2.90651 4.72215 3.86575 4.2905C4.8978 3.82607 6.42883 3.5 8.19995 3.5C9.97107 3.5 11.5021 3.82607 12.5342 4.2905Z" fill="currentColor"/>
</svg>
