<svg width="40" height="40" viewBox="0 0 40 40" fill="none" xmlns="http://www.w3.org/2000/svg">
  <circle cx="20" cy="20" r="18.75" fill="currentColor"/>
  <path d="M28.7211 15.7153C28.5122 14.9499 27.899 14.3459 27.1204 14.1399C25.6978 13.7563 20.0064 13.75 20.0064 13.75C20.0064 13.75 14.3159 13.7438 12.8923 14.1104C12.1292 14.3147 11.4988 14.932 11.288 15.6966C10.9128 17.0936 10.9092 19.9911 10.9092 19.9911C10.9092 19.9911 10.9055 22.9029 11.278 24.2856C11.487 25.0501 12.1002 25.6541 12.8796 25.8602C14.3168 26.2437 19.9928 26.25 19.9928 26.25C19.9928 26.25 25.6842 26.2562 27.1068 25.8905C27.8844 25.6853 28.5004 25.0822 28.712 24.3177C29.0881 22.9216 29.0909 20.025 29.0909 20.025C29.0909 20.025 29.109 17.1123 28.7211 15.7153ZM18.1859 22.6754L18.1904 17.3228L22.9207 20.0036L18.1859 22.6754Z" fill="white"/>
  </svg>
